# Blender v2.67 (sub 0) OBJ File: ''
# www.blender.org
o Cylinder
v 0.000000 0.500000 -1.000005
v 0.000000 0.500000 0.000005
v 0.097545 0.490393 -1.000005
v 0.097545 0.490393 0.000005
v 0.191342 0.461940 -1.000005
v 0.191342 0.461940 0.000005
v 0.277785 0.415735 -1.000005
v 0.277785 0.415735 0.000005
v 0.353553 0.353553 -1.000005
v 0.353553 0.353553 0.000005
v 0.415735 0.277785 -1.000005
v 0.415735 0.277785 0.000005
v 0.461940 0.191342 -1.000005
v 0.461940 0.191342 0.000005
v 0.490393 0.097545 -1.000005
v 0.490393 0.097545 0.000005
v 0.500000 -0.000000 -1.000005
v 0.500000 0.000000 0.000005
v 0.490393 -0.097545 -1.000005
v 0.490393 -0.097545 0.000005
v 0.461940 -0.191342 -1.000005
v 0.461940 -0.191342 0.000005
v 0.415735 -0.277785 -1.000005
v 0.415735 -0.277785 0.000005
v 0.353553 -0.353553 -1.000005
v 0.353553 -0.353553 0.000005
v 0.277785 -0.415735 -1.000005
v 0.277785 -0.415735 0.000005
v 0.191342 -0.461940 -1.000005
v 0.191342 -0.461940 0.000005
v 0.097545 -0.490393 -1.000005
v 0.097545 -0.490393 0.000005
v -0.000000 -0.500000 -1.000005
v -0.000000 -0.500000 0.000005
v -0.097545 -0.490393 -1.000005
v -0.097545 -0.490393 0.000005
v -0.191342 -0.461940 -1.000005
v -0.191342 -0.461940 0.000005
v -0.277785 -0.415735 -1.000005
v -0.277785 -0.415735 0.000005
v -0.353554 -0.353553 -1.000005
v -0.353554 -0.353553 0.000005
v -0.415735 -0.277785 -1.000005
v -0.415735 -0.277785 0.000005
v -0.461940 -0.191341 -1.000005
v -0.461940 -0.191341 0.000005
v -0.490393 -0.097545 -1.000005
v -0.490393 -0.097545 0.000005
v -0.500000 0.000000 -1.000005
v -0.500000 0.000001 0.000005
v -0.490393 0.097546 -1.000005
v -0.490393 0.097546 0.000005
v -0.461940 0.191342 -1.000005
v -0.461940 0.191342 0.000005
v -0.415734 0.277786 -1.000005
v -0.415734 0.277786 0.000005
v -0.353553 0.353554 -1.000005
v -0.353553 0.353554 0.000005
v -0.277785 0.415735 -1.000005
v -0.277785 0.415735 0.000005
v -0.191341 0.461940 -1.000005
v -0.191341 0.461940 0.000005
v -0.097544 0.490393 -1.000005
v -0.097544 0.490393 0.000005
vn 0.000000 0.727866 -0.685690
vn 0.000000 0.727866 0.685690
vn 0.142003 0.713889 0.685690
vn 0.142003 0.713889 -0.685690
vn 0.278542 0.672475 0.685690
vn 0.278542 0.672475 -0.685690
vn 0.404370 0.605213 0.685690
vn 0.404370 0.605213 -0.685690
vn 0.514664 0.514664 0.685690
vn 0.514664 0.514664 -0.685690
vn 0.605213 0.404370 0.685690
vn 0.605213 0.404370 -0.685690
vn 0.672475 0.278542 0.685690
vn 0.672475 0.278542 -0.685690
vn 0.713889 0.142003 0.685690
vn 0.713889 0.142003 -0.685690
vn 0.727866 0.000000 0.685690
vn 0.727866 0.000000 -0.685690
vn 0.713889 -0.142003 0.685690
vn 0.713889 -0.142003 -0.685690
vn 0.672475 -0.278542 0.685690
vn 0.672475 -0.278542 -0.685690
vn 0.605213 -0.404370 0.685690
vn 0.605213 -0.404370 -0.685690
vn 0.514664 -0.514664 0.685690
vn 0.514664 -0.514664 -0.685690
vn 0.404370 -0.605213 0.685690
vn 0.404370 -0.605213 -0.685690
vn 0.278542 -0.672475 0.685690
vn 0.278542 -0.672475 -0.685690
vn 0.142003 -0.713889 0.685690
vn 0.142003 -0.713889 -0.685690
vn 0.000000 -0.727866 0.685690
vn 0.000000 -0.727866 -0.685690
vn -0.142003 -0.713889 -0.685690
vn -0.142003 -0.713889 0.685690
vn -0.278542 -0.672475 -0.685690
vn -0.278542 -0.672475 0.685690
vn -0.404370 -0.605213 -0.685690
vn -0.404370 -0.605213 0.685690
vn -0.514695 -0.514664 -0.685690
vn -0.514695 -0.514664 0.685690
vn -0.605213 -0.404370 -0.685690
vn -0.605213 -0.404370 0.685690
vn -0.672475 -0.278542 -0.685690
vn -0.672475 -0.278542 0.685690
vn -0.713889 -0.142003 -0.685690
vn -0.713889 -0.142003 0.685690
vn -0.727866 0.000000 -0.685690
vn -0.727866 0.000000 0.685690
vn -0.713889 0.142003 -0.685690
vn -0.713889 0.142003 0.685690
vn -0.672475 0.278542 -0.685690
vn -0.672475 0.278542 0.685690
vn -0.605213 0.404370 -0.685690
vn -0.605213 0.404370 0.685690
vn -0.514695 0.514695 -0.685690
vn -0.514664 0.514695 0.685690
vn -0.404370 0.605213 -0.685690
vn -0.404370 0.605213 0.685690
vn -0.278542 0.672475 -0.685690
vn -0.278542 0.672475 0.685690
vn -0.142003 0.713889 -0.685690
vn -0.142003 0.713889 0.685690
s 1
f 1//1 2//2 4//3
f 3//4 4//3 6//5
f 5//6 6//5 8//7
f 7//8 8//7 10//9
f 9//10 10//9 12//11
f 11//12 12//11 14//13
f 13//14 14//13 16//15
f 15//16 16//15 18//17
f 17//18 18//17 20//19
f 19//20 20//19 22//21
f 21//22 22//21 24//23
f 23//24 24//23 26//25
f 25//26 26//25 28//27
f 27//28 28//27 30//29
f 29//30 30//29 32//31
f 31//32 32//31 34//33
f 33//34 34//33 35//35
f 35//35 36//36 37//37
f 37//37 38//38 39//39
f 39//39 40//40 41//41
f 41//41 42//42 43//43
f 43//43 44//44 45//45
f 45//45 46//46 47//47
f 47//47 48//48 49//49
f 49//49 50//50 51//51
f 51//51 52//52 53//53
f 53//53 54//54 55//55
f 55//55 56//56 57//57
f 57//57 58//58 59//59
f 59//59 60//60 61//61
f 58//58 62//62 60//60
f 63//63 64//64 1//1
f 61//61 62//62 63//63
f 1//1 3//4 63//63
f 3//4 1//1 4//3
f 5//6 3//4 6//5
f 7//8 5//6 8//7
f 9//10 7//8 10//9
f 11//12 9//10 12//11
f 13//14 11//12 14//13
f 15//16 13//14 16//15
f 17//18 15//16 18//17
f 19//20 17//18 20//19
f 21//22 19//20 22//21
f 23//24 21//22 24//23
f 25//26 23//24 26//25
f 27//28 25//26 28//27
f 29//30 27//28 30//29
f 31//32 29//30 32//31
f 33//34 31//32 34//33
f 34//33 36//36 35//35
f 36//36 38//38 37//37
f 38//38 40//40 39//39
f 40//40 42//42 41//41
f 42//42 44//44 43//43
f 44//44 46//46 45//45
f 46//46 48//48 47//47
f 48//48 50//50 49//49
f 50//50 52//52 51//51
f 52//52 54//54 53//53
f 54//54 56//56 55//55
f 56//56 58//58 57//57
f 58//58 60//60 59//59
f 60//60 62//62 61//61
f 58//58 64//64 62//62
f 2//2 64//64 58//58
f 40//40 44//44 42//42
f 40//40 46//46 44//44
f 40//40 48//48 46//46
f 40//40 50//50 48//48
f 40//40 52//52 50//50
f 40//40 54//54 52//52
f 40//40 56//56 54//54
f 40//40 58//58 56//56
f 26//25 30//29 28//27
f 26//25 32//31 30//29
f 26//25 34//33 32//31
f 8//7 12//11 10//9
f 8//7 14//13 12//11
f 8//7 16//15 14//13
f 8//7 18//17 16//15
f 8//7 20//19 18//17
f 8//7 22//21 20//19
f 8//7 24//23 22//21
f 8//7 26//25 24//23
f 4//3 2//2 6//5
f 2//2 58//58 6//5
f 58//58 40//40 6//5
f 40//40 38//38 6//5
f 38//38 36//36 6//5
f 36//36 34//33 6//5
f 34//33 26//25 6//5
f 26//25 8//7 6//5
f 64//64 2//2 1//1
f 62//62 64//64 63//63
f 3//4 5//6 63//63
f 5//6 7//8 63//63
f 7//8 9//10 63//63
f 9//10 11//12 63//63
f 59//59 55//55 57//57
f 11//12 13//14 63//63
f 59//59 53//53 55//55
f 13//14 15//16 63//63
f 59//59 51//51 53//53
f 15//16 17//18 63//63
f 59//59 49//49 51//51
f 17//18 19//20 63//63
f 59//59 47//47 49//49
f 19//20 21//22 63//63
f 59//59 45//45 47//47
f 21//22 23//24 63//63
f 59//59 43//43 45//45
f 23//24 25//26 63//63
f 59//59 41//41 43//43
f 25//26 27//28 63//63
f 59//59 39//39 41//41
f 27//28 29//30 63//63
f 59//59 37//37 39//39
f 29//30 31//32 63//63
f 59//59 35//35 37//37
f 31//32 33//34 63//63
f 33//34 35//35 63//63
f 35//35 59//59 63//63
f 59//59 61//61 63//63
