# Blender v2.67 (sub 0) OBJ File: ''
# www.blender.org
mtllib screen.mtl
o Cube.001
v 0.500000 0.500000 -0.017500
v 0.500000 -0.500000 -0.017500
v -0.500000 -0.500000 -0.017500
v 0.500000 0.499999 0.017500
v -0.500000 0.500000 0.017500
v -0.500000 -0.500000 0.017500
v 0.499999 -0.500000 0.017500
v -0.500000 0.500000 -0.017500
vn 0.000000 0.000000 -1.000000
vn -0.000000 -0.000000 1.000000
vn 1.000000 -0.000001 -0.000000
vn 0.000000 -1.000000 0.000000
vn -1.000000 -0.000000 -0.000000
vn -0.000000 1.000000 0.000029
vn 1.000000 -0.000000 0.000029
vn 0.000001 1.000000 0.000000
usemtl Material.002
s off
f 1//1 2//1 3//1
f 4//2 5//2 6//2
f 1//3 4//3 7//3
f 2//4 7//4 3//4
f 3//5 6//5 8//5
f 4//6 1//6 8//6
f 8//1 1//1 3//1
f 7//2 4//2 6//2
f 2//7 1//7 7//7
f 7//4 6//4 3//4
f 6//5 5//5 8//5
f 5//8 4//8 8//8
