# Blender v2.72 (sub 0) OBJ File: ''
# www.blender.org
o Plane
v -0.500000 -0.003491 0.500000
v 0.500000 -0.003491 0.500000
v -0.500000 -0.003491 -0.500000
v 0.500000 -0.003491 -0.500000
v -0.475609 -0.003491 0.475609
v 0.475609 -0.003491 0.475609
v -0.475609 -0.003491 -0.475609
v 0.475609 -0.003491 -0.475609
v -0.500000 0.003987 0.500000
v 0.500000 0.003987 0.500000
v -0.500000 0.003987 -0.500000
v 0.500000 0.003987 -0.500000
v -0.475609 0.003987 0.475609
v 0.475609 0.003987 0.475609
v -0.475609 0.003987 -0.475609
v 0.475609 0.003987 -0.475609
vn 0.000000 1.000000 0.000000
vn 0.000000 -1.000000 -0.000000
vn 0.000000 0.000000 1.000000
vn -1.000000 0.000000 0.000000
vn 0.000000 0.000000 -1.000000
vn 1.000000 0.000000 0.000000
s off
f 12//1 11//1 15//1 16//1
f 10//1 12//1 16//1 14//1
f 4//2 8//2 7//2 3//2
f 2//2 6//2 8//2 4//2
f 1//2 5//2 6//2 2//2
f 3//2 7//2 5//2 1//2
f 9//1 10//1 14//1 13//1
f 11//1 9//1 13//1 15//1
f 7//3 8//3 16//3 15//3
f 8//4 6//4 14//4 16//4
f 6//5 5//5 13//5 14//5
f 5//6 7//6 15//6 13//6
f 4//5 3//5 11//5 12//5
f 2//6 4//6 12//6 10//6
f 1//3 2//3 10//3 9//3
f 3//4 1//4 9//4 11//4
