# Blender v2.67 (sub 0) OBJ File: ''
# www.blender.org
o Icosphere
v 0.000000 -1.000000 0.000000
v 0.723600 -0.447215 0.525720
v -0.276385 -0.447215 0.850640
v -0.894425 -0.447215 0.000000
v -0.276385 -0.447215 -0.850640
v 0.723600 -0.447215 -0.525720
v 0.276385 0.447215 0.850640
v -0.723600 0.447215 0.525720
v -0.723600 0.447215 -0.525720
v 0.276385 0.447215 -0.850640
v 0.894425 0.447215 0.000000
v 0.000000 1.000000 0.000000
vt 0.473937 0.000089
vt 0.999911 0.022974
vt 0.728792 0.286349
vt 0.000089 0.241979
vt 0.341588 0.340748
vt 0.579419 0.335826
vt 0.469741 0.348214
vt 0.271208 0.497821
vt 0.999911 0.542192
vt 0.658410 0.443423
vt 0.530258 0.435957
vt 0.420581 0.448346
vt 0.000089 0.761197
vt 0.526063 0.784083
vn 0.000000 -1.000000 0.000000
vn 0.723594 -0.447188 0.525712
vn -0.276376 -0.447188 0.850642
vn 0.723594 -0.447188 -0.525712
vn -0.894406 -0.447188 0.000000
vn -0.276376 -0.447188 -0.850642
vn 0.894406 0.447188 0.000000
vn 0.276376 0.447188 0.850642
vn -0.723594 0.447188 0.525712
vn -0.723594 0.447188 -0.525712
vn 0.276376 0.447188 -0.850642
vn 0.000000 1.000000 0.000000
s 1
f 1/1/1 2/2/2 3/3/3
f 2/4/2 1/1/1 6/5/4
f 1/1/1 3/3/3 4/6/5
f 1/1/1 4/6/5 5/7/6
f 1/1/1 5/7/6 6/5/4
f 2/4/2 6/5/4 11/8/7
f 3/3/3 2/2/2 7/9/8
f 4/6/5 3/3/3 8/10/9
f 5/7/6 4/6/5 9/11/10
f 6/5/4 5/7/6 10/12/11
f 2/4/2 11/8/7 7/13/8
f 3/3/3 7/9/8 8/10/9
f 4/6/5 8/10/9 9/11/10
f 5/7/6 9/11/10 10/12/11
f 6/5/4 10/12/11 11/8/7
f 7/13/8 11/8/7 12/14/12
f 8/10/9 7/9/8 12/14/12
f 9/11/10 8/10/9 12/14/12
f 10/12/11 9/11/10 12/14/12
f 11/8/7 10/12/11 12/14/12
